/* XPM */
static char *result[] = {
/* columns rows colors chars-per-pixel */
"128 128 14 1 ",
"  c #72751B",
". c #7F8226",
"X c #787B21",
"o c #656C17",
"O c #B3B0A9",
"+ c #A2814F",
"@ c #636917",
"# c #9CA8AD",
"$ c #BD9842",
"% c #A2783C",
"& c #C6A740",
"* c #7F8124",
"= c #686F16",
"- c white",
/* pixels */
"                                                                                                                                ",
"                                                                                                                                ",
"                                                                                                                                ",
"                                                                                                                                ",
"                                                                                                                                ",
"                                                                                        .XX                                     ",
"                                                                                         XXX                                    ",
"                                        .                                                 oo                                    ",
"                                        XX                                                                                      ",
"                                    ..X oX                                .                                                     ",
"                                     .XXoo ..X                     X..   .                                                      ",
"                                  X. oXX oXX.                       .XX ..                                                      ",
"                                   .XXoX XXX                        oXX OO                                                      ",
"                                   oXX ooXXo                         oXO++O                                                     ",
"               OO                   oX  ooo                           o@OO@                                                     ",
"              O++O                   o XX                               @@                                  XX                  ",
"              @OO@                     .o                                                                  .X                   ",
"               @@                      o                                                                  XXo                   ",
"                                                        X..                                           ..X XXo                   ",
"                                                       XX.                                             .XXoXo                   ",
"                                                       XXo                          OO                 oXXoo                    ",
"                                                  X.  ##o                          O++O OO              oo                 .    ",
"                                                  o.X#++#.                         @OO@O+O                          X..   .     ",
"                                                   XX@##@o                        OO@@ OO@                           .## ..     ",
"                                                   oXo@@o                         +O   @@                            #++#XX     ",
"                                                    ooXXo                         @@                                 @##@OO     ",
"                                                      Xo                                                              @@ +O     ",
"                                                                                                                         @@     ",
"                                                                                                                                ",
"                                                                                                                                ",
"                                                                                                                                ",
"                                                                                                                                ",
"                                                                                                                                ",
"                                                                                                                                ",
"                                                                                                                                ",
"                                                                                                                                ",
"                                                                                                                                ",
"                                                                                                                                ",
"                                                                                      ..                                        ",
"                                                                                       .X    .                                  ",
"                                                         .                             XXX X.                                   ",
"                                                    ..X  XX                         .XXoXXXXo                                   ",
"                                                     .XX oX  .                       XX$$oXXo                                   ",
"                                                     oXX## XXo                       o$%%$Xo                                    ",
"           .                                        .XoX+# XXo                        @$$@ &&                                   ",
"      ..X  XX                                       oOOo@@ oo                       && @@  %&           .X                      ",
"       .XX oX  ##                                   O++OoOO                        &%%&    @@      .X  X.o                      ",
"       oXXXo XX#+#                                  @OO@O+O                        @&&@            oXX XX                       ",
"      .XoXX OOX@##                                   @@ OO@                         @@              oXXXo                       ",
"      oXXoXO++O @@                                      @@                                          oXXo                        ",
"       oXoo@OO@ OO                                                                                   oX                         ",
"            @@ O++O                                                                                                             ",
"        ##   OO@OO@                                                                                                             ",
"        +#  O+O @@                                                                                                              ",
"        @@  OO@                                                          ..                                             X..     ",
"            @@                                                     X   XX.                                             XX.      ",
"                                                                    .. XXo                                             XXo      ",
"                                     ..                             .XXoo                                              oo       ",
"                                      .XX   ..                      oXX                                                         ",
"                                      oXX  X.                        o                                                          ",
"                                       oo XXX                                                                                   ",
"                                          XXo                                                                                   ",
"                                          oo                                                                                    ",
"                                                                                                                                ",
"                                                                                                                                ",
"                                                                                                                                ",
"                                                                                                                                ",
"                                             X.                                                                                 ",
"                                              ..                                                                                ",
"                                              XXX                                                                               ",
"                                              oXXoXX..                                                              X.    ..    ",
"                                               ##XXX                                                                 ..  X.     ",
"                                              #+#XXo                                                                 XX XXo     ",
"                   X.    XX                   ##@Xo                                                                  && XXo     ",
"                    ..  XX                    @@                                                                    &%%&oo      ",
"                    oXX XX                                                                                          @&&@        ",
"                    oXX oo                                                       *                                   @@         ",
"                     oo                                    .                    XX  *XX                                         ",
"                                                          .                  *  X= X**                                          ",
"                                                         XX                   *X= XX*=                                          ",
"                                                         XXo                 =XX  XX=X*                                         ",
"                                                         ooX.                 =X  OOXX=                                         ",
"                                                           XX                  = O++O=                                          ",
"                                                           oo                    @OO@                                           ",
"        $$                                                                     O+ @@                                            ",
"       $%%$ &&                        ..     .                                 OO                                               ",
"       @$$@&%&                         .XX X.                                  @@                                               ",
"        @@ &&@                      X..oXoXXo                                                                                   ",
"           @@                        .XX##XXo  OO                                                                               ",
"                                     oX#++#o   +O                    X**                                                        ",
"                                      o@##@OO  @@                     *XX                                                       ",
"                                        @@O+O                         =XX                                                       ",
"                                          OO@                          ==                                                       ",
"                                          @@                                                                                    ",
"                                                                                                                                ",
"                                                                                                                                ",
"                                                                                                                                ",
"                                                                                                                                ",
"                                                                                            X                                   ",
"      *                                                                                    **                                   ",
"       *                           XX                                                     X*=                                   ",
"       XX                          =**                                                    XX                                    ",
"      =XX                           *XX   X                                               ==                                    ",
"     *X==                           =XX *X                                                                                      ",
"     XX                             =XXX&&            *                                                                         ",
"     ==                              ==&%%&          XX  **X                                                                    ",
"                                       @&&@$$     X  X= XX*                                                                     ",
"                                        @@ %$      *X=  XX=                                                           *         ",
"                                           @@      XX&&XX=X*                                                         XX  X**    ",
"                          X                         &%%&=XX=                                                      *  X= XX*     ",
"                          XX                        @&&@=X=                                                       =XX =XXX=     ",
"                         OOX                         @@  $$            **    XX                                   =XX##XX=X*    ",
"                        O+O=                  **X       $%%$            *XX **                                     =#++#=XX=    ",
"                        OO@                    *XX      @$$@         X**=X=XX=                                      @##@=X=     ",
"    **     *            @@                     =XX     &&@@           *XX==X##                               **X     @@##       ",
"     *XX X*                                     ==    &%&@            =XOO X+#                                *XXOO    +#       ",
"  X**=X=XX=                                           &&@              O++O @@                                =XO++O   @@       ",
"   *XOO=XX= **   *                                    @@               @OO@                                    =@OO@            ",
"   =O++OX=   ** *                                                       @@                                       @@             ",
"    @OO@     XX=X                  **    XX                                                                                     ",
"     @@     ##X==                   *X &&X                   **                                                                 ",
"           #++#                     =XX&%X              X  XX*                                                                  ",
"           @##@ ##                  =XX@@=              **=XX=                                                                  ",
"            @@  +#                   ==                 *XX==                                                                   ",
"                @@                                      =XX                                                                     ",
"                                                                                                                                ",
"                                                                                                                                ",
"                                                                                                                                "
};
